{
  "accessors": [
    {
      "bufferView": 2,
      "componentType": 5126,
      "count": 5536,
      "max": [
        3.1117238998413086,
        2.5134398937225342,
        2.0629580020904541
      ],
      "min": [
        -1.9076219797134399,
        -2.0861001014709473,
        -2.1330389976501465
      ],
      "type": "VEC3"
    },
    {
      "bufferView": 2,
      "byteOffset": 66432,
      "componentType": 5126,
      "count": 5536,
      "max": [
        1,
        1,
        1
      ],
      "min": [
        -1,
        -1,
        -1
      ],
      "type": "VEC3"
    },
    {
      "bufferView": 3,
      "componentType": 5126,
      "count": 5536,
      "max": [
        1,
        1,
        1,
        1
      ],
      "min": [
        -1,
        -1,
        -1,
        -1
      ],
      "type": "VEC4"
    },
    {
      "bufferView": 1,
      "componentType": 5126,
      "count": 5536,
      "max": [
        0.99830102920532227,
        0.99719297885894775
      ],
      "min": [
        0.0021879998967051506,
        0.0026279999874532223
      ],
      "type": "VEC2"
    },
    {
      "bufferView": 0,
      "componentType": 5125,
      "count": 12363,
      "max": [
        5535
      ],
      "min": [
        0
      ],
      "type": "SCALAR"
    },
    {
      "bufferView": 2,
      "byteOffset": 132864,
      "componentType": 5126,
      "count": 4673,
      "max": [
        3.1733710765838623,
        2.5134398937225342,
        2.0788071155548096
      ],
      "min": [
        -1.9076219797134399,
        -2.1510269641876221,
        -2.1329970359802246
      ],
      "type": "VEC3"
    },
    {
      "bufferView": 2,
      "byteOffset": 188940,
      "componentType": 5126,
      "count": 4673,
      "max": [
        0.99999910593032837,
        1,
        1
      ],
      "min": [
        -0.99999964237213135,
        -0.99999833106994629,
        -0.99999910593032837
      ],
      "type": "VEC3"
    },
    {
      "bufferView": 3,
      "byteOffset": 88576,
      "componentType": 5126,
      "count": 4673,
      "max": [
        1,
        1,
        0.99999451637268066,
        1
      ],
      "min": [
        -1,
        -1,
        -0.99999886751174927,
        -1
      ],
      "type": "VEC4"
    },
    {
      "bufferView": 1,
      "byteOffset": 44288,
      "componentType": 5126,
      "count": 4673,
      "max": [
        0.99714797735214233,
        0.99659299850463867
      ],
      "min": [
        0.0021049999631941319,
        0.0025619999505579472
      ],
      "type": "VEC2"
    },
    {
      "bufferView": 0,
      "byteOffset": 49452,
      "componentType": 5125,
      "count": 12801,
      "max": [
        4672
      ],
      "min": [
        0
      ],
      "type": "SCALAR"
    }
  ],
  "asset": {
    "extras": {
      "author": "wburton95 (https://sketchfab.com/wburton95)",
      "license": "CC-BY-4.0 (http://creativecommons.org/licenses/by/4.0/)",
      "source": "https://sketchfab.com/models/9f9683452b184f6e8d04cdd6434ba6f8",
      "title": "Old V8"
    },
    "generator": "Sketchfab-3.20.5",
    "version": "2.0"
  },
  "bufferViews": [
    {
      "buffer": 0,
      "byteLength": 100656,
      "byteOffset": 0,
      "name": "floatBufferViews",
      "target": 34963
    },
    {
      "buffer": 0,
      "byteLength": 81672,
      "byteOffset": 100656,
      "byteStride": 8,
      "name": "floatBufferViews",
      "target": 34962
    },
    {
      "buffer": 0,
      "byteLength": 245016,
      "byteOffset": 182328,
      "byteStride": 12,
      "name": "floatBufferViews",
      "target": 34962
    },
    {
      "buffer": 0,
      "byteLength": 163344,
      "byteOffset": 427344,
      "byteStride": 16,
      "name": "floatBufferViews",
      "target": 34962
    }
  ],
  "buffers": [
    {
      "byteLength": 590688,
      "uri": "scene.bin"
    }
  ],
  "images": [
    {
      "uri": "textures/None_baseColor.png"
    },
    {
      "uri": "textures/None_normal.png"
    },
    {
      "uri": "textures/None_metallicRoughness.png"
    }
  ],
  "materials": [
    {
      "doubleSided": true,
      "name": "None",
      "normalTexture": {
        "index": 1,
        "scale": 1,
        "texCoord": 0
      },
      "pbrMetallicRoughness": {
        "baseColorFactor": [
          1,
          1,
          1,
          1
        ],
        "baseColorTexture": {
          "index": 0,
          "texCoord": 0
        },
        "metallicFactor": 1,
        "metallicRoughnessTexture": {
          "index": 2,
          "texCoord": 0
        },
        "roughnessFactor": 1
      }
    }
  ],
  "meshes": [
    {
      "primitives": [
        {
          "attributes": {
            "NORMAL": 1,
            "POSITION": 0,
            "TANGENT": 2,
            "TEXCOORD_0": 3
          },
          "indices": 4,
          "material": 0,
          "mode": 4
        }
      ]
    },
    {
      "primitives": [
        {
          "attributes": {
            "NORMAL": 6,
            "POSITION": 5,
            "TANGENT": 7,
            "TEXCOORD_0": 8
          },
          "indices": 9,
          "material": 0,
          "mode": 4
        }
      ]
    }
  ],
  "nodes": [
    {
      "children": [
        1
      ],
      "name": "RootNode (gltf orientation matrix)",
      "rotation": [
        -0.70710678118654746,
        -0,
        -0,
        0.70710678118654757
      ]
    },
    {
      "children": [
        2
      ],
      "name": "RootNode (model correction matrix)"
    },
    {
      "children": [
        3,
        4
      ],
      "name": "engine.obj.cleaner.materialmerger.gles"
    },
    {
      "mesh": 0,
      "name": ""
    },
    {
      "mesh": 1,
      "name": ""
    }
  ],
  "samplers": [
    {
      "magFilter": 9729,
      "minFilter": 9987,
      "wrapS": 10497,
      "wrapT": 10497
    }
  ],
  "scene": 0,
  "scenes": [
    {
      "name": "OSG_Scene",
      "nodes": [
        0
      ]
    }
  ],
  "textures": [
    {
      "sampler": 0,
      "source": 0
    },
    {
      "sampler": 0,
      "source": 1
    },
    {
      "sampler": 0,
      "source": 2
    }
  ]
}

